<mxfile host="Electron" modified="2024-04-15T14:39:59.654Z" agent="Mozilla/5.0 (Windows NT 10.0; Win64; x64) AppleWebKit/537.36 (KHTML, like Gecko) draw.io/24.1.0 Chrome/120.0.6099.109 Electron/28.1.0 Safari/537.36" etag="q29FwKUKOEq0yH41d8tU" version="24.1.0" type="device">
  <diagram name="Page-1" id="61WMrizz2YHY4jtzxFiJ">
    <mxGraphModel dx="1101" dy="824" grid="1" gridSize="10" guides="1" tooltips="1" connect="1" arrows="1" fold="1" page="1" pageScale="1" pageWidth="1169" pageHeight="827" math="0" shadow="0">
      <root>
        <mxCell id="0" />
        <mxCell id="1" parent="0" />
        <mxCell id="ENUckQoq6mWFOVnJaxUl-1" value="&lt;h1&gt;車次&lt;/h1&gt;" style="rounded=0;whiteSpace=wrap;html=1;fillColor=#dae8fc;strokeColor=#6c8ebf;" vertex="1" parent="1">
          <mxGeometry x="50" y="55" width="120" height="60" as="geometry" />
        </mxCell>
        <mxCell id="ENUckQoq6mWFOVnJaxUl-2" value="&lt;h1&gt;包含&lt;/h1&gt;" style="rhombus;whiteSpace=wrap;html=1;fillColor=#fff2cc;strokeColor=#d6b656;" vertex="1" parent="1">
          <mxGeometry x="270" y="150" width="110" height="70" as="geometry" />
        </mxCell>
        <mxCell id="ENUckQoq6mWFOVnJaxUl-3" value="&lt;h1&gt;座位&lt;/h1&gt;" style="rounded=0;whiteSpace=wrap;html=1;fillColor=#dae8fc;strokeColor=#6c8ebf;" vertex="1" parent="1">
          <mxGeometry x="875" y="50" width="120" height="60" as="geometry" />
        </mxCell>
        <mxCell id="ENUckQoq6mWFOVnJaxUl-4" value="&lt;h1&gt;停靠站&lt;/h1&gt;" style="rounded=0;whiteSpace=wrap;html=1;fillColor=#dae8fc;strokeColor=#6c8ebf;" vertex="1" parent="1">
          <mxGeometry x="465" y="180" width="120" height="60" as="geometry" />
        </mxCell>
        <mxCell id="ENUckQoq6mWFOVnJaxUl-5" value="" style="endArrow=none;html=1;rounded=0;fontFamily=Helvetica;fontSize=11;fontColor=default;labelBackgroundColor=none;entryX=1;entryY=0.5;entryDx=0;entryDy=0;exitX=0;exitY=0.5;exitDx=0;exitDy=0;" edge="1" parent="1" source="ENUckQoq6mWFOVnJaxUl-4" target="ENUckQoq6mWFOVnJaxUl-2">
          <mxGeometry width="50" height="50" relative="1" as="geometry">
            <mxPoint x="1050" y="465" as="sourcePoint" />
            <mxPoint x="1100" y="415" as="targetPoint" />
          </mxGeometry>
        </mxCell>
        <mxCell id="ENUckQoq6mWFOVnJaxUl-6" value="&lt;h1&gt;N&lt;/h1&gt;" style="edgeLabel;html=1;align=center;verticalAlign=middle;resizable=0;points=[];fontFamily=Helvetica;fontSize=11;fontColor=default;labelBackgroundColor=none;fillColor=none;gradientColor=none;" vertex="1" connectable="0" parent="ENUckQoq6mWFOVnJaxUl-5">
          <mxGeometry x="-0.1556" relative="1" as="geometry">
            <mxPoint x="-39" y="-30" as="offset" />
          </mxGeometry>
        </mxCell>
        <mxCell id="ENUckQoq6mWFOVnJaxUl-7" value="" style="endArrow=none;html=1;rounded=0;fontFamily=Helvetica;fontSize=11;fontColor=default;labelBackgroundColor=none;entryX=1;entryY=0.75;entryDx=0;entryDy=0;exitX=0;exitY=0;exitDx=0;exitDy=0;" edge="1" parent="1" source="ENUckQoq6mWFOVnJaxUl-2" target="ENUckQoq6mWFOVnJaxUl-1">
          <mxGeometry width="50" height="50" relative="1" as="geometry">
            <mxPoint x="970" y="175" as="sourcePoint" />
            <mxPoint x="1310" y="305" as="targetPoint" />
          </mxGeometry>
        </mxCell>
        <mxCell id="ENUckQoq6mWFOVnJaxUl-8" value="&lt;h1&gt;1&lt;/h1&gt;" style="edgeLabel;html=1;align=center;verticalAlign=middle;resizable=0;points=[];fontFamily=Helvetica;fontSize=11;fontColor=default;labelBackgroundColor=none;fillColor=none;gradientColor=none;" vertex="1" connectable="0" parent="ENUckQoq6mWFOVnJaxUl-7">
          <mxGeometry x="-0.12" y="4" relative="1" as="geometry">
            <mxPoint x="63" y="11" as="offset" />
          </mxGeometry>
        </mxCell>
        <mxCell id="ENUckQoq6mWFOVnJaxUl-10" value="&lt;h1&gt;車廂&lt;/h1&gt;" style="rounded=0;whiteSpace=wrap;html=1;fillColor=#dae8fc;strokeColor=#6c8ebf;" vertex="1" parent="1">
          <mxGeometry x="490" y="50" width="120" height="60" as="geometry" />
        </mxCell>
        <mxCell id="ENUckQoq6mWFOVnJaxUl-11" value="&lt;h1&gt;包含&lt;/h1&gt;" style="rhombus;whiteSpace=wrap;html=1;fillColor=#fff2cc;strokeColor=#d6b656;" vertex="1" parent="1">
          <mxGeometry x="270" y="45" width="110" height="70" as="geometry" />
        </mxCell>
        <mxCell id="ENUckQoq6mWFOVnJaxUl-12" value="&lt;h1&gt;包含&lt;/h1&gt;" style="rhombus;whiteSpace=wrap;html=1;fillColor=#fff2cc;strokeColor=#d6b656;" vertex="1" parent="1">
          <mxGeometry x="680" y="45" width="120" height="70" as="geometry" />
        </mxCell>
        <mxCell id="ENUckQoq6mWFOVnJaxUl-13" value="" style="endArrow=none;html=1;rounded=0;fontFamily=Helvetica;fontSize=11;fontColor=default;labelBackgroundColor=none;entryX=1;entryY=0.5;entryDx=0;entryDy=0;exitX=0;exitY=0.5;exitDx=0;exitDy=0;" edge="1" parent="1" source="ENUckQoq6mWFOVnJaxUl-3" target="ENUckQoq6mWFOVnJaxUl-12">
          <mxGeometry relative="1" as="geometry">
            <mxPoint x="1300" y="335" as="sourcePoint" />
            <mxPoint x="1360" y="325" as="targetPoint" />
          </mxGeometry>
        </mxCell>
        <mxCell id="ENUckQoq6mWFOVnJaxUl-14" value="&lt;h1&gt;N&lt;/h1&gt;" style="resizable=0;html=1;whiteSpace=wrap;align=right;verticalAlign=bottom;fontFamily=Helvetica;fontSize=11;fontColor=default;labelBackgroundColor=none;fillColor=none;gradientColor=none;" connectable="0" vertex="1" parent="ENUckQoq6mWFOVnJaxUl-13">
          <mxGeometry x="1" relative="1" as="geometry">
            <mxPoint x="20" y="15" as="offset" />
          </mxGeometry>
        </mxCell>
        <mxCell id="ENUckQoq6mWFOVnJaxUl-15" value="" style="endArrow=none;html=1;rounded=0;fontFamily=Helvetica;fontSize=11;fontColor=default;labelBackgroundColor=none;exitX=1;exitY=0.5;exitDx=0;exitDy=0;entryX=0;entryY=0.5;entryDx=0;entryDy=0;" edge="1" parent="1" source="ENUckQoq6mWFOVnJaxUl-10" target="ENUckQoq6mWFOVnJaxUl-12">
          <mxGeometry relative="1" as="geometry">
            <mxPoint x="1200" y="225" as="sourcePoint" />
            <mxPoint x="600" y="175" as="targetPoint" />
          </mxGeometry>
        </mxCell>
        <mxCell id="ENUckQoq6mWFOVnJaxUl-16" value="&lt;h1&gt;1&lt;/h1&gt;" style="resizable=0;html=1;whiteSpace=wrap;align=right;verticalAlign=bottom;fontFamily=Helvetica;fontSize=11;fontColor=default;labelBackgroundColor=none;fillColor=none;gradientColor=none;" connectable="0" vertex="1" parent="ENUckQoq6mWFOVnJaxUl-15">
          <mxGeometry relative="1" as="geometry">
            <mxPoint x="35" y="15" as="offset" />
          </mxGeometry>
        </mxCell>
        <mxCell id="ENUckQoq6mWFOVnJaxUl-17" value="" style="endArrow=none;html=1;rounded=0;fontFamily=Helvetica;fontSize=11;fontColor=default;labelBackgroundColor=none;entryX=1;entryY=0.5;entryDx=0;entryDy=0;exitX=0;exitY=0.5;exitDx=0;exitDy=0;" edge="1" parent="1" source="ENUckQoq6mWFOVnJaxUl-10" target="ENUckQoq6mWFOVnJaxUl-11">
          <mxGeometry relative="1" as="geometry">
            <mxPoint x="1200" y="225" as="sourcePoint" />
            <mxPoint x="1360" y="225" as="targetPoint" />
          </mxGeometry>
        </mxCell>
        <mxCell id="ENUckQoq6mWFOVnJaxUl-18" value="&lt;h1&gt;N&lt;/h1&gt;" style="resizable=0;html=1;whiteSpace=wrap;align=right;verticalAlign=bottom;fontFamily=Helvetica;fontSize=11;fontColor=default;labelBackgroundColor=none;fillColor=none;gradientColor=none;" connectable="0" vertex="1" parent="ENUckQoq6mWFOVnJaxUl-17">
          <mxGeometry x="1" relative="1" as="geometry">
            <mxPoint x="20" y="20" as="offset" />
          </mxGeometry>
        </mxCell>
        <mxCell id="ENUckQoq6mWFOVnJaxUl-19" value="" style="endArrow=none;html=1;rounded=0;fontFamily=Helvetica;fontSize=11;fontColor=default;labelBackgroundColor=none;exitX=1;exitY=0.5;exitDx=0;exitDy=0;entryX=0;entryY=0.5;entryDx=0;entryDy=0;" edge="1" parent="1" source="ENUckQoq6mWFOVnJaxUl-1" target="ENUckQoq6mWFOVnJaxUl-11">
          <mxGeometry relative="1" as="geometry">
            <mxPoint x="1095" y="174.5" as="sourcePoint" />
            <mxPoint x="1180" y="175" as="targetPoint" />
          </mxGeometry>
        </mxCell>
        <mxCell id="ENUckQoq6mWFOVnJaxUl-20" value="&lt;h1&gt;1&lt;/h1&gt;" style="resizable=0;html=1;whiteSpace=wrap;align=right;verticalAlign=bottom;fontFamily=Helvetica;fontSize=11;fontColor=default;labelBackgroundColor=none;fillColor=none;gradientColor=none;" connectable="0" vertex="1" parent="ENUckQoq6mWFOVnJaxUl-19">
          <mxGeometry x="1" relative="1" as="geometry">
            <mxPoint x="-10" y="20" as="offset" />
          </mxGeometry>
        </mxCell>
        <mxCell id="ENUckQoq6mWFOVnJaxUl-37" value="&lt;h2&gt;&lt;span style=&quot;font-weight: normal;&quot;&gt;抵達時間&lt;/span&gt;&lt;/h2&gt;" style="ellipse;whiteSpace=wrap;html=1;align=center;" vertex="1" parent="1">
          <mxGeometry x="340" y="270" width="100" height="40" as="geometry" />
        </mxCell>
        <mxCell id="ENUckQoq6mWFOVnJaxUl-38" value="&lt;h2&gt;&lt;span style=&quot;font-weight: normal;&quot;&gt;開車時間&lt;/span&gt;&lt;/h2&gt;" style="ellipse;whiteSpace=wrap;html=1;align=center;" vertex="1" parent="1">
          <mxGeometry x="485" y="310" width="100" height="40" as="geometry" />
        </mxCell>
        <mxCell id="ENUckQoq6mWFOVnJaxUl-39" value="" style="endArrow=none;html=1;rounded=0;entryX=0.645;entryY=0.025;entryDx=0;entryDy=0;exitX=0.25;exitY=1;exitDx=0;exitDy=0;entryPerimeter=0;" edge="1" parent="1" source="ENUckQoq6mWFOVnJaxUl-4" target="ENUckQoq6mWFOVnJaxUl-37">
          <mxGeometry relative="1" as="geometry">
            <mxPoint x="520" y="295" as="sourcePoint" />
            <mxPoint x="680" y="295" as="targetPoint" />
          </mxGeometry>
        </mxCell>
        <mxCell id="ENUckQoq6mWFOVnJaxUl-40" value="" style="endArrow=none;html=1;rounded=0;entryX=0.42;entryY=0;entryDx=0;entryDy=0;exitX=0.5;exitY=1;exitDx=0;exitDy=0;entryPerimeter=0;" edge="1" parent="1" source="ENUckQoq6mWFOVnJaxUl-4" target="ENUckQoq6mWFOVnJaxUl-38">
          <mxGeometry relative="1" as="geometry">
            <mxPoint x="520" y="295" as="sourcePoint" />
            <mxPoint x="570" y="285" as="targetPoint" />
          </mxGeometry>
        </mxCell>
        <mxCell id="ENUckQoq6mWFOVnJaxUl-41" value="&lt;h1&gt;包含&lt;/h1&gt;" style="rhombus;whiteSpace=wrap;html=1;fillColor=#fff2cc;strokeColor=#d6b656;" vertex="1" parent="1">
          <mxGeometry x="120" y="240" width="110" height="70" as="geometry" />
        </mxCell>
        <mxCell id="ENUckQoq6mWFOVnJaxUl-43" value="&lt;h1&gt;行經路段&lt;/h1&gt;" style="rounded=0;whiteSpace=wrap;html=1;fillColor=#dae8fc;strokeColor=#6c8ebf;" vertex="1" parent="1">
          <mxGeometry x="400" y="390" width="120" height="60" as="geometry" />
        </mxCell>
        <mxCell id="ENUckQoq6mWFOVnJaxUl-45" value="" style="endArrow=none;html=1;rounded=0;fontFamily=Helvetica;fontSize=11;fontColor=default;labelBackgroundColor=none;entryX=0.5;entryY=1;entryDx=0;entryDy=0;exitX=0;exitY=0;exitDx=0;exitDy=0;" edge="1" parent="1" source="ENUckQoq6mWFOVnJaxUl-41" target="ENUckQoq6mWFOVnJaxUl-1">
          <mxGeometry width="50" height="50" relative="1" as="geometry">
            <mxPoint x="180" y="305" as="sourcePoint" />
            <mxPoint x="130" y="220" as="targetPoint" />
          </mxGeometry>
        </mxCell>
        <mxCell id="ENUckQoq6mWFOVnJaxUl-46" value="&lt;h1&gt;1&lt;/h1&gt;" style="edgeLabel;html=1;align=center;verticalAlign=middle;resizable=0;points=[];fontFamily=Helvetica;fontSize=11;fontColor=default;labelBackgroundColor=none;fillColor=none;gradientColor=none;" vertex="1" connectable="0" parent="ENUckQoq6mWFOVnJaxUl-45">
          <mxGeometry x="-0.12" y="4" relative="1" as="geometry">
            <mxPoint x="3" y="44" as="offset" />
          </mxGeometry>
        </mxCell>
        <mxCell id="ENUckQoq6mWFOVnJaxUl-47" value="" style="endArrow=none;html=1;rounded=0;fontFamily=Helvetica;fontSize=11;fontColor=default;labelBackgroundColor=none;entryX=1;entryY=0.5;entryDx=0;entryDy=0;exitX=0;exitY=0.5;exitDx=0;exitDy=0;" edge="1" parent="1" source="ENUckQoq6mWFOVnJaxUl-43" target="ENUckQoq6mWFOVnJaxUl-41">
          <mxGeometry width="50" height="50" relative="1" as="geometry">
            <mxPoint x="280" y="380" as="sourcePoint" />
            <mxPoint x="230" y="355" as="targetPoint" />
          </mxGeometry>
        </mxCell>
        <mxCell id="ENUckQoq6mWFOVnJaxUl-48" value="&lt;h1&gt;N&lt;/h1&gt;" style="edgeLabel;html=1;align=center;verticalAlign=middle;resizable=0;points=[];fontFamily=Helvetica;fontSize=11;fontColor=default;labelBackgroundColor=none;fillColor=none;gradientColor=none;" vertex="1" connectable="0" parent="ENUckQoq6mWFOVnJaxUl-47">
          <mxGeometry x="-0.1556" relative="1" as="geometry">
            <mxPoint x="-78" y="-89" as="offset" />
          </mxGeometry>
        </mxCell>
        <mxCell id="ENUckQoq6mWFOVnJaxUl-49" value="&lt;h1&gt;車票&lt;/h1&gt;" style="rounded=0;whiteSpace=wrap;html=1;fillColor=#dae8fc;strokeColor=#6c8ebf;" vertex="1" parent="1">
          <mxGeometry x="860" y="340" width="120" height="60" as="geometry" />
        </mxCell>
        <mxCell id="ENUckQoq6mWFOVnJaxUl-51" value="&lt;h1&gt;販售&lt;/h1&gt;" style="rhombus;whiteSpace=wrap;html=1;fillColor=#fff2cc;strokeColor=#d6b656;" vertex="1" parent="1">
          <mxGeometry x="875" y="200" width="110" height="70" as="geometry" />
        </mxCell>
        <mxCell id="ENUckQoq6mWFOVnJaxUl-52" value="" style="endArrow=none;html=1;rounded=0;fontFamily=Helvetica;fontSize=11;fontColor=default;labelBackgroundColor=none;entryX=0.5;entryY=0;entryDx=0;entryDy=0;" edge="1" parent="1" source="ENUckQoq6mWFOVnJaxUl-3" target="ENUckQoq6mWFOVnJaxUl-51">
          <mxGeometry relative="1" as="geometry">
            <mxPoint x="610" y="235" as="sourcePoint" />
            <mxPoint x="660" y="235" as="targetPoint" />
          </mxGeometry>
        </mxCell>
        <mxCell id="ENUckQoq6mWFOVnJaxUl-53" value="&lt;h1&gt;1&lt;/h1&gt;" style="resizable=0;html=1;whiteSpace=wrap;align=right;verticalAlign=bottom;fontFamily=Helvetica;fontSize=11;fontColor=default;labelBackgroundColor=none;fillColor=none;gradientColor=none;" connectable="0" vertex="1" parent="ENUckQoq6mWFOVnJaxUl-52">
          <mxGeometry relative="1" as="geometry">
            <mxPoint x="20" y="37" as="offset" />
          </mxGeometry>
        </mxCell>
        <mxCell id="ENUckQoq6mWFOVnJaxUl-54" value="" style="endArrow=none;html=1;rounded=0;fontFamily=Helvetica;fontSize=11;fontColor=default;labelBackgroundColor=none;entryX=0.5;entryY=1;entryDx=0;entryDy=0;exitX=0.5;exitY=0;exitDx=0;exitDy=0;" edge="1" parent="1" source="ENUckQoq6mWFOVnJaxUl-49" target="ENUckQoq6mWFOVnJaxUl-51">
          <mxGeometry relative="1" as="geometry">
            <mxPoint x="850" y="235" as="sourcePoint" />
            <mxPoint x="780" y="235" as="targetPoint" />
          </mxGeometry>
        </mxCell>
        <mxCell id="ENUckQoq6mWFOVnJaxUl-55" value="&lt;h1&gt;N&lt;/h1&gt;" style="resizable=0;html=1;whiteSpace=wrap;align=right;verticalAlign=bottom;fontFamily=Helvetica;fontSize=11;fontColor=default;labelBackgroundColor=none;fillColor=none;gradientColor=none;" connectable="0" vertex="1" parent="ENUckQoq6mWFOVnJaxUl-54">
          <mxGeometry x="1" relative="1" as="geometry">
            <mxPoint x="20" y="50" as="offset" />
          </mxGeometry>
        </mxCell>
        <mxCell id="ENUckQoq6mWFOVnJaxUl-56" value="&lt;h1&gt;販售&lt;/h1&gt;" style="rhombus;whiteSpace=wrap;html=1;fillColor=#fff2cc;strokeColor=#d6b656;" vertex="1" parent="1">
          <mxGeometry x="660" y="390" width="110" height="70" as="geometry" />
        </mxCell>
        <mxCell id="ENUckQoq6mWFOVnJaxUl-57" value="" style="endArrow=none;html=1;rounded=0;fontFamily=Helvetica;fontSize=11;fontColor=default;labelBackgroundColor=none;entryX=0;entryY=0.5;entryDx=0;entryDy=0;exitX=1;exitY=0.5;exitDx=0;exitDy=0;" edge="1" parent="1" target="ENUckQoq6mWFOVnJaxUl-56" source="ENUckQoq6mWFOVnJaxUl-43">
          <mxGeometry relative="1" as="geometry">
            <mxPoint x="685" y="430" as="sourcePoint" />
            <mxPoint x="445" y="410" as="targetPoint" />
          </mxGeometry>
        </mxCell>
        <mxCell id="ENUckQoq6mWFOVnJaxUl-58" value="&lt;h1&gt;1&lt;/h1&gt;" style="resizable=0;html=1;whiteSpace=wrap;align=right;verticalAlign=bottom;fontFamily=Helvetica;fontSize=11;fontColor=default;labelBackgroundColor=none;fillColor=none;gradientColor=none;" connectable="0" vertex="1" parent="ENUckQoq6mWFOVnJaxUl-57">
          <mxGeometry relative="1" as="geometry">
            <mxPoint x="70" y="18" as="offset" />
          </mxGeometry>
        </mxCell>
        <mxCell id="ENUckQoq6mWFOVnJaxUl-59" value="" style="endArrow=none;html=1;rounded=0;fontFamily=Helvetica;fontSize=11;fontColor=default;labelBackgroundColor=none;entryX=1;entryY=0.5;entryDx=0;entryDy=0;exitX=0;exitY=0.5;exitDx=0;exitDy=0;" edge="1" parent="1" target="ENUckQoq6mWFOVnJaxUl-56" source="ENUckQoq6mWFOVnJaxUl-49">
          <mxGeometry relative="1" as="geometry">
            <mxPoint x="685" y="615" as="sourcePoint" />
            <mxPoint x="565" y="410" as="targetPoint" />
          </mxGeometry>
        </mxCell>
        <mxCell id="ENUckQoq6mWFOVnJaxUl-60" value="&lt;h1&gt;N&lt;/h1&gt;" style="resizable=0;html=1;whiteSpace=wrap;align=right;verticalAlign=bottom;fontFamily=Helvetica;fontSize=11;fontColor=default;labelBackgroundColor=none;fillColor=none;gradientColor=none;" connectable="0" vertex="1" parent="ENUckQoq6mWFOVnJaxUl-59">
          <mxGeometry x="1" relative="1" as="geometry">
            <mxPoint x="10" y="10" as="offset" />
          </mxGeometry>
        </mxCell>
        <mxCell id="ENUckQoq6mWFOVnJaxUl-61" value="&lt;h1&gt;起&lt;/h1&gt;" style="rhombus;whiteSpace=wrap;html=1;fillColor=#fff2cc;strokeColor=#d6b656;" vertex="1" parent="1">
          <mxGeometry x="680" y="190" width="120" height="70" as="geometry" />
        </mxCell>
        <mxCell id="ENUckQoq6mWFOVnJaxUl-62" value="&lt;h1&gt;迄&lt;/h1&gt;" style="rhombus;whiteSpace=wrap;html=1;fillColor=#fff2cc;strokeColor=#d6b656;" vertex="1" parent="1">
          <mxGeometry x="590" y="270" width="120" height="70" as="geometry" />
        </mxCell>
        <mxCell id="ENUckQoq6mWFOVnJaxUl-64" value="" style="endArrow=none;html=1;rounded=0;fontFamily=Helvetica;fontSize=11;fontColor=default;labelBackgroundColor=none;entryX=0;entryY=0.5;entryDx=0;entryDy=0;exitX=1;exitY=0.75;exitDx=0;exitDy=0;" edge="1" parent="1" source="ENUckQoq6mWFOVnJaxUl-4" target="ENUckQoq6mWFOVnJaxUl-61">
          <mxGeometry relative="1" as="geometry">
            <mxPoint x="585" y="394" as="sourcePoint" />
            <mxPoint x="585" y="449" as="targetPoint" />
          </mxGeometry>
        </mxCell>
        <mxCell id="ENUckQoq6mWFOVnJaxUl-65" value="&lt;h1&gt;1&lt;/h1&gt;" style="resizable=0;html=1;whiteSpace=wrap;align=right;verticalAlign=bottom;fontFamily=Helvetica;fontSize=11;fontColor=default;labelBackgroundColor=none;fillColor=none;gradientColor=none;" connectable="0" vertex="1" parent="ENUckQoq6mWFOVnJaxUl-64">
          <mxGeometry relative="1" as="geometry">
            <mxPoint x="50" y="31" as="offset" />
          </mxGeometry>
        </mxCell>
        <mxCell id="ENUckQoq6mWFOVnJaxUl-66" value="" style="endArrow=none;html=1;rounded=0;fontFamily=Helvetica;fontSize=11;fontColor=default;labelBackgroundColor=none;entryX=0;entryY=0;entryDx=0;entryDy=0;exitX=0.879;exitY=1;exitDx=0;exitDy=0;exitPerimeter=0;" edge="1" parent="1" source="ENUckQoq6mWFOVnJaxUl-4" target="ENUckQoq6mWFOVnJaxUl-62">
          <mxGeometry relative="1" as="geometry">
            <mxPoint x="540" y="400" as="sourcePoint" />
            <mxPoint x="610" y="466.02" as="targetPoint" />
          </mxGeometry>
        </mxCell>
        <mxCell id="ENUckQoq6mWFOVnJaxUl-67" value="&lt;h1&gt;1&lt;/h1&gt;" style="resizable=0;html=1;whiteSpace=wrap;align=right;verticalAlign=bottom;fontFamily=Helvetica;fontSize=11;fontColor=default;labelBackgroundColor=none;fillColor=none;gradientColor=none;" connectable="0" vertex="1" parent="ENUckQoq6mWFOVnJaxUl-66">
          <mxGeometry relative="1" as="geometry">
            <mxPoint x="34" y="37" as="offset" />
          </mxGeometry>
        </mxCell>
        <mxCell id="ENUckQoq6mWFOVnJaxUl-69" value="" style="endArrow=none;html=1;rounded=0;fontFamily=Helvetica;fontSize=11;fontColor=default;labelBackgroundColor=none;entryX=1;entryY=0.5;entryDx=0;entryDy=0;exitX=0;exitY=0.25;exitDx=0;exitDy=0;" edge="1" parent="1" source="ENUckQoq6mWFOVnJaxUl-49" target="ENUckQoq6mWFOVnJaxUl-61">
          <mxGeometry relative="1" as="geometry">
            <mxPoint x="840" y="450" as="sourcePoint" />
            <mxPoint x="770" y="410" as="targetPoint" />
          </mxGeometry>
        </mxCell>
        <mxCell id="ENUckQoq6mWFOVnJaxUl-70" value="&lt;h1&gt;N&lt;/h1&gt;" style="resizable=0;html=1;whiteSpace=wrap;align=right;verticalAlign=bottom;fontFamily=Helvetica;fontSize=11;fontColor=default;labelBackgroundColor=none;fillColor=none;gradientColor=none;" connectable="0" vertex="1" parent="ENUckQoq6mWFOVnJaxUl-69">
          <mxGeometry x="1" relative="1" as="geometry">
            <mxPoint x="20" y="16" as="offset" />
          </mxGeometry>
        </mxCell>
        <mxCell id="ENUckQoq6mWFOVnJaxUl-71" value="" style="endArrow=none;html=1;rounded=0;fontFamily=Helvetica;fontSize=11;fontColor=default;labelBackgroundColor=none;entryX=1;entryY=0.5;entryDx=0;entryDy=0;exitX=0.004;exitY=0.367;exitDx=0;exitDy=0;exitPerimeter=0;" edge="1" parent="1" source="ENUckQoq6mWFOVnJaxUl-49" target="ENUckQoq6mWFOVnJaxUl-62">
          <mxGeometry relative="1" as="geometry">
            <mxPoint x="850" y="460" as="sourcePoint" />
            <mxPoint x="780" y="424" as="targetPoint" />
          </mxGeometry>
        </mxCell>
        <mxCell id="ENUckQoq6mWFOVnJaxUl-72" value="&lt;h1&gt;N&lt;/h1&gt;" style="resizable=0;html=1;whiteSpace=wrap;align=right;verticalAlign=bottom;fontFamily=Helvetica;fontSize=11;fontColor=default;labelBackgroundColor=none;fillColor=none;gradientColor=none;" connectable="0" vertex="1" parent="ENUckQoq6mWFOVnJaxUl-71">
          <mxGeometry x="1" relative="1" as="geometry">
            <mxPoint x="20" y="16" as="offset" />
          </mxGeometry>
        </mxCell>
        <mxCell id="ENUckQoq6mWFOVnJaxUl-74" value="&lt;h1&gt;場次&lt;/h1&gt;" style="rounded=0;whiteSpace=wrap;html=1;fillColor=#dae8fc;strokeColor=#6c8ebf;" vertex="1" parent="1">
          <mxGeometry x="320" y="525" width="120" height="60" as="geometry" />
        </mxCell>
        <mxCell id="ENUckQoq6mWFOVnJaxUl-75" value="&lt;h1&gt;局數&lt;/h1&gt;" style="rounded=0;whiteSpace=wrap;html=1;fillColor=#dae8fc;strokeColor=#6c8ebf;" vertex="1" parent="1">
          <mxGeometry x="700" y="525" width="120" height="60" as="geometry" />
        </mxCell>
        <mxCell id="ENUckQoq6mWFOVnJaxUl-76" value="&lt;h1&gt;球次&lt;/h1&gt;" style="rounded=0;whiteSpace=wrap;html=1;fillColor=#dae8fc;strokeColor=#6c8ebf;" vertex="1" parent="1">
          <mxGeometry x="1030" y="530" width="120" height="60" as="geometry" />
        </mxCell>
        <mxCell id="ENUckQoq6mWFOVnJaxUl-77" value="&lt;h1&gt;球隊&lt;/h1&gt;" style="rounded=0;whiteSpace=wrap;html=1;fillColor=#dae8fc;strokeColor=#6c8ebf;" vertex="1" parent="1">
          <mxGeometry x="400" y="720" width="120" height="60" as="geometry" />
        </mxCell>
        <mxCell id="ENUckQoq6mWFOVnJaxUl-78" value="&lt;h1&gt;球員&lt;/h1&gt;" style="rounded=0;whiteSpace=wrap;html=1;fillColor=#dae8fc;strokeColor=#6c8ebf;" vertex="1" parent="1">
          <mxGeometry x="800" y="720" width="120" height="60" as="geometry" />
        </mxCell>
        <mxCell id="ENUckQoq6mWFOVnJaxUl-79" value="&lt;h1&gt;先攻&lt;/h1&gt;" style="rhombus;whiteSpace=wrap;html=1;fillColor=#fff2cc;strokeColor=#d6b656;" vertex="1" parent="1">
          <mxGeometry x="390" y="610" width="110" height="70" as="geometry" />
        </mxCell>
        <mxCell id="ENUckQoq6mWFOVnJaxUl-80" value="&lt;h1&gt;後攻&lt;/h1&gt;" style="rhombus;whiteSpace=wrap;html=1;fillColor=#fff2cc;strokeColor=#d6b656;" vertex="1" parent="1">
          <mxGeometry x="260" y="610" width="110" height="70" as="geometry" />
        </mxCell>
        <mxCell id="ENUckQoq6mWFOVnJaxUl-81" value="" style="endArrow=none;html=1;rounded=0;fontFamily=Helvetica;fontSize=11;fontColor=default;labelBackgroundColor=none;exitX=0.65;exitY=0.967;exitDx=0;exitDy=0;exitPerimeter=0;entryX=0;entryY=0;entryDx=0;entryDy=0;" edge="1" parent="1" source="ENUckQoq6mWFOVnJaxUl-74" target="ENUckQoq6mWFOVnJaxUl-79">
          <mxGeometry relative="1" as="geometry">
            <mxPoint x="460" y="610" as="sourcePoint" />
            <mxPoint x="490" y="650" as="targetPoint" />
          </mxGeometry>
        </mxCell>
        <mxCell id="ENUckQoq6mWFOVnJaxUl-82" value="&lt;h1&gt;N&lt;/h1&gt;" style="resizable=0;html=1;whiteSpace=wrap;align=right;verticalAlign=bottom;fontFamily=Helvetica;fontSize=11;fontColor=default;labelBackgroundColor=none;fillColor=none;gradientColor=none;" connectable="0" vertex="1" parent="ENUckQoq6mWFOVnJaxUl-81">
          <mxGeometry relative="1" as="geometry">
            <mxPoint x="40" y="32" as="offset" />
          </mxGeometry>
        </mxCell>
        <mxCell id="ENUckQoq6mWFOVnJaxUl-83" value="" style="endArrow=none;html=1;rounded=0;fontFamily=Helvetica;fontSize=11;fontColor=default;labelBackgroundColor=none;exitX=0.658;exitY=-0.033;exitDx=0;exitDy=0;entryX=0.5;entryY=1;entryDx=0;entryDy=0;exitPerimeter=0;" edge="1" parent="1" source="ENUckQoq6mWFOVnJaxUl-77" target="ENUckQoq6mWFOVnJaxUl-79">
          <mxGeometry relative="1" as="geometry">
            <mxPoint x="140" y="476" as="sourcePoint" />
            <mxPoint x="220" y="460" as="targetPoint" />
          </mxGeometry>
        </mxCell>
        <mxCell id="ENUckQoq6mWFOVnJaxUl-84" value="&lt;h1&gt;1&lt;/h1&gt;" style="resizable=0;html=1;whiteSpace=wrap;align=right;verticalAlign=bottom;fontFamily=Helvetica;fontSize=11;fontColor=default;labelBackgroundColor=none;fillColor=none;gradientColor=none;" connectable="0" vertex="1" parent="ENUckQoq6mWFOVnJaxUl-83">
          <mxGeometry relative="1" as="geometry">
            <mxPoint x="-22" y="21" as="offset" />
          </mxGeometry>
        </mxCell>
        <mxCell id="ENUckQoq6mWFOVnJaxUl-85" value="" style="endArrow=none;html=1;rounded=0;fontFamily=Helvetica;fontSize=11;fontColor=default;labelBackgroundColor=none;exitX=0;exitY=0.25;exitDx=0;exitDy=0;entryX=0.6;entryY=0.9;entryDx=0;entryDy=0;entryPerimeter=0;" edge="1" parent="1" source="ENUckQoq6mWFOVnJaxUl-77" target="ENUckQoq6mWFOVnJaxUl-80">
          <mxGeometry relative="1" as="geometry">
            <mxPoint x="160" y="475" as="sourcePoint" />
            <mxPoint x="240" y="459" as="targetPoint" />
          </mxGeometry>
        </mxCell>
        <mxCell id="ENUckQoq6mWFOVnJaxUl-86" value="&lt;h1&gt;1&lt;/h1&gt;" style="resizable=0;html=1;whiteSpace=wrap;align=right;verticalAlign=bottom;fontFamily=Helvetica;fontSize=11;fontColor=default;labelBackgroundColor=none;fillColor=none;gradientColor=none;" connectable="0" vertex="1" parent="ENUckQoq6mWFOVnJaxUl-85">
          <mxGeometry relative="1" as="geometry">
            <mxPoint x="-23" y="21" as="offset" />
          </mxGeometry>
        </mxCell>
        <mxCell id="ENUckQoq6mWFOVnJaxUl-87" value="" style="endArrow=none;html=1;rounded=0;fontFamily=Helvetica;fontSize=11;fontColor=default;labelBackgroundColor=none;entryX=0.5;entryY=0;entryDx=0;entryDy=0;exitX=0.25;exitY=1;exitDx=0;exitDy=0;" edge="1" parent="1" source="ENUckQoq6mWFOVnJaxUl-74" target="ENUckQoq6mWFOVnJaxUl-80">
          <mxGeometry relative="1" as="geometry">
            <mxPoint x="370" y="620" as="sourcePoint" />
            <mxPoint x="313" y="483" as="targetPoint" />
          </mxGeometry>
        </mxCell>
        <mxCell id="ENUckQoq6mWFOVnJaxUl-88" value="&lt;h1&gt;N&lt;/h1&gt;" style="resizable=0;html=1;whiteSpace=wrap;align=right;verticalAlign=bottom;fontFamily=Helvetica;fontSize=11;fontColor=default;labelBackgroundColor=none;fillColor=none;gradientColor=none;" connectable="0" vertex="1" parent="ENUckQoq6mWFOVnJaxUl-87">
          <mxGeometry relative="1" as="geometry">
            <mxPoint x="-8" y="35" as="offset" />
          </mxGeometry>
        </mxCell>
        <mxCell id="ENUckQoq6mWFOVnJaxUl-89" value="&lt;h1&gt;包含&lt;/h1&gt;" style="rhombus;whiteSpace=wrap;html=1;fillColor=#fff2cc;strokeColor=#d6b656;" vertex="1" parent="1">
          <mxGeometry x="525" y="520" width="110" height="70" as="geometry" />
        </mxCell>
        <mxCell id="ENUckQoq6mWFOVnJaxUl-90" value="" style="endArrow=none;html=1;rounded=0;fontFamily=Helvetica;fontSize=11;fontColor=default;labelBackgroundColor=none;entryX=0;entryY=0.5;entryDx=0;entryDy=0;exitX=1;exitY=0.5;exitDx=0;exitDy=0;" edge="1" parent="1" source="ENUckQoq6mWFOVnJaxUl-74" target="ENUckQoq6mWFOVnJaxUl-89">
          <mxGeometry relative="1" as="geometry">
            <mxPoint x="530" y="430" as="sourcePoint" />
            <mxPoint x="670" y="435" as="targetPoint" />
          </mxGeometry>
        </mxCell>
        <mxCell id="ENUckQoq6mWFOVnJaxUl-91" value="&lt;h1&gt;1&lt;/h1&gt;" style="resizable=0;html=1;whiteSpace=wrap;align=right;verticalAlign=bottom;fontFamily=Helvetica;fontSize=11;fontColor=default;labelBackgroundColor=none;fillColor=none;gradientColor=none;" connectable="0" vertex="1" parent="ENUckQoq6mWFOVnJaxUl-90">
          <mxGeometry relative="1" as="geometry">
            <mxPoint x="30" y="18" as="offset" />
          </mxGeometry>
        </mxCell>
        <mxCell id="ENUckQoq6mWFOVnJaxUl-92" value="" style="endArrow=none;html=1;rounded=0;fontFamily=Helvetica;fontSize=11;fontColor=default;labelBackgroundColor=none;entryX=1;entryY=0.5;entryDx=0;entryDy=0;exitX=0;exitY=0.5;exitDx=0;exitDy=0;" edge="1" parent="1" source="ENUckQoq6mWFOVnJaxUl-75" target="ENUckQoq6mWFOVnJaxUl-89">
          <mxGeometry relative="1" as="geometry">
            <mxPoint x="870" y="380" as="sourcePoint" />
            <mxPoint x="780" y="435" as="targetPoint" />
          </mxGeometry>
        </mxCell>
        <mxCell id="ENUckQoq6mWFOVnJaxUl-93" value="&lt;h1&gt;N&lt;/h1&gt;" style="resizable=0;html=1;whiteSpace=wrap;align=right;verticalAlign=bottom;fontFamily=Helvetica;fontSize=11;fontColor=default;labelBackgroundColor=none;fillColor=none;gradientColor=none;" connectable="0" vertex="1" parent="ENUckQoq6mWFOVnJaxUl-92">
          <mxGeometry x="1" relative="1" as="geometry">
            <mxPoint x="20" y="20" as="offset" />
          </mxGeometry>
        </mxCell>
        <mxCell id="ENUckQoq6mWFOVnJaxUl-94" value="&lt;h1&gt;包含&lt;/h1&gt;" style="rhombus;whiteSpace=wrap;html=1;fillColor=#fff2cc;strokeColor=#d6b656;" vertex="1" parent="1">
          <mxGeometry x="870" y="520" width="110" height="70" as="geometry" />
        </mxCell>
        <mxCell id="ENUckQoq6mWFOVnJaxUl-95" value="" style="endArrow=none;html=1;rounded=0;fontFamily=Helvetica;fontSize=11;fontColor=default;labelBackgroundColor=none;entryX=0;entryY=0.5;entryDx=0;entryDy=0;exitX=1;exitY=0.5;exitDx=0;exitDy=0;" edge="1" parent="1" target="ENUckQoq6mWFOVnJaxUl-94" source="ENUckQoq6mWFOVnJaxUl-75">
          <mxGeometry relative="1" as="geometry">
            <mxPoint x="820" y="580" as="sourcePoint" />
            <mxPoint x="1010" y="435" as="targetPoint" />
          </mxGeometry>
        </mxCell>
        <mxCell id="ENUckQoq6mWFOVnJaxUl-96" value="&lt;h1&gt;1&lt;/h1&gt;" style="resizable=0;html=1;whiteSpace=wrap;align=right;verticalAlign=bottom;fontFamily=Helvetica;fontSize=11;fontColor=default;labelBackgroundColor=none;fillColor=none;gradientColor=none;" connectable="0" vertex="1" parent="ENUckQoq6mWFOVnJaxUl-95">
          <mxGeometry relative="1" as="geometry">
            <mxPoint x="20" y="18" as="offset" />
          </mxGeometry>
        </mxCell>
        <mxCell id="ENUckQoq6mWFOVnJaxUl-97" value="" style="endArrow=none;html=1;rounded=0;fontFamily=Helvetica;fontSize=11;fontColor=default;labelBackgroundColor=none;entryX=1;entryY=0.5;entryDx=0;entryDy=0;exitX=0;exitY=0.5;exitDx=0;exitDy=0;" edge="1" parent="1" target="ENUckQoq6mWFOVnJaxUl-94" source="ENUckQoq6mWFOVnJaxUl-76">
          <mxGeometry relative="1" as="geometry">
            <mxPoint x="1010" y="610" as="sourcePoint" />
            <mxPoint x="1120" y="435" as="targetPoint" />
          </mxGeometry>
        </mxCell>
        <mxCell id="ENUckQoq6mWFOVnJaxUl-98" value="&lt;h1&gt;N&lt;/h1&gt;" style="resizable=0;html=1;whiteSpace=wrap;align=right;verticalAlign=bottom;fontFamily=Helvetica;fontSize=11;fontColor=default;labelBackgroundColor=none;fillColor=none;gradientColor=none;" connectable="0" vertex="1" parent="ENUckQoq6mWFOVnJaxUl-97">
          <mxGeometry x="1" relative="1" as="geometry">
            <mxPoint x="20" y="20" as="offset" />
          </mxGeometry>
        </mxCell>
        <mxCell id="ENUckQoq6mWFOVnJaxUl-101" value="&lt;h1&gt;投手&lt;/h1&gt;" style="rhombus;whiteSpace=wrap;html=1;fillColor=#fff2cc;strokeColor=#d6b656;" vertex="1" parent="1">
          <mxGeometry x="860" y="640" width="110" height="70" as="geometry" />
        </mxCell>
        <mxCell id="ENUckQoq6mWFOVnJaxUl-103" value="&lt;h1&gt;打擊&lt;/h1&gt;" style="rhombus;whiteSpace=wrap;html=1;fillColor=#fff2cc;strokeColor=#d6b656;" vertex="1" parent="1">
          <mxGeometry x="995" y="690" width="110" height="70" as="geometry" />
        </mxCell>
        <mxCell id="ENUckQoq6mWFOVnJaxUl-104" value="" style="endArrow=none;html=1;rounded=0;fontFamily=Helvetica;fontSize=11;fontColor=default;labelBackgroundColor=none;entryX=0.695;entryY=0.143;entryDx=0;entryDy=0;exitX=0;exitY=0.75;exitDx=0;exitDy=0;entryPerimeter=0;" edge="1" parent="1" source="ENUckQoq6mWFOVnJaxUl-76" target="ENUckQoq6mWFOVnJaxUl-101">
          <mxGeometry relative="1" as="geometry">
            <mxPoint x="1020" y="590" as="sourcePoint" />
            <mxPoint x="942.5" y="652.5" as="targetPoint" />
          </mxGeometry>
        </mxCell>
        <mxCell id="ENUckQoq6mWFOVnJaxUl-105" value="&lt;h1&gt;N&lt;/h1&gt;" style="resizable=0;html=1;whiteSpace=wrap;align=right;verticalAlign=bottom;fontFamily=Helvetica;fontSize=11;fontColor=default;labelBackgroundColor=none;fillColor=none;gradientColor=none;" connectable="0" vertex="1" parent="ENUckQoq6mWFOVnJaxUl-104">
          <mxGeometry relative="1" as="geometry">
            <mxPoint x="-28" y="38" as="offset" />
          </mxGeometry>
        </mxCell>
        <mxCell id="ENUckQoq6mWFOVnJaxUl-106" value="" style="endArrow=none;html=1;rounded=0;fontFamily=Helvetica;fontSize=11;fontColor=default;labelBackgroundColor=none;entryX=0;entryY=1;entryDx=0;entryDy=0;exitX=0.5;exitY=0;exitDx=0;exitDy=0;" edge="1" parent="1" source="ENUckQoq6mWFOVnJaxUl-78" target="ENUckQoq6mWFOVnJaxUl-101">
          <mxGeometry relative="1" as="geometry">
            <mxPoint x="1030" y="605" as="sourcePoint" />
            <mxPoint x="946" y="660" as="targetPoint" />
          </mxGeometry>
        </mxCell>
        <mxCell id="ENUckQoq6mWFOVnJaxUl-107" value="&lt;h1&gt;1&lt;/h1&gt;" style="resizable=0;html=1;whiteSpace=wrap;align=right;verticalAlign=bottom;fontFamily=Helvetica;fontSize=11;fontColor=default;labelBackgroundColor=none;fillColor=none;gradientColor=none;" connectable="0" vertex="1" parent="ENUckQoq6mWFOVnJaxUl-106">
          <mxGeometry relative="1" as="geometry">
            <mxPoint x="1" y="3" as="offset" />
          </mxGeometry>
        </mxCell>
        <mxCell id="ENUckQoq6mWFOVnJaxUl-108" value="" style="endArrow=none;html=1;rounded=0;fontFamily=Helvetica;fontSize=11;fontColor=default;labelBackgroundColor=none;entryX=0.109;entryY=0.643;entryDx=0;entryDy=0;exitX=1;exitY=0.25;exitDx=0;exitDy=0;entryPerimeter=0;" edge="1" parent="1" source="ENUckQoq6mWFOVnJaxUl-78" target="ENUckQoq6mWFOVnJaxUl-103">
          <mxGeometry relative="1" as="geometry">
            <mxPoint x="870" y="770" as="sourcePoint" />
            <mxPoint x="898" y="703" as="targetPoint" />
          </mxGeometry>
        </mxCell>
        <mxCell id="ENUckQoq6mWFOVnJaxUl-109" value="&lt;h1&gt;1&lt;/h1&gt;" style="resizable=0;html=1;whiteSpace=wrap;align=right;verticalAlign=bottom;fontFamily=Helvetica;fontSize=11;fontColor=default;labelBackgroundColor=none;fillColor=none;gradientColor=none;" connectable="0" vertex="1" parent="ENUckQoq6mWFOVnJaxUl-108">
          <mxGeometry relative="1" as="geometry">
            <mxPoint x="31" y="3" as="offset" />
          </mxGeometry>
        </mxCell>
        <mxCell id="ENUckQoq6mWFOVnJaxUl-110" value="" style="endArrow=none;html=1;rounded=0;fontFamily=Helvetica;fontSize=11;fontColor=default;labelBackgroundColor=none;entryX=0.664;entryY=0.157;entryDx=0;entryDy=0;exitX=0.5;exitY=1;exitDx=0;exitDy=0;entryPerimeter=0;" edge="1" parent="1" source="ENUckQoq6mWFOVnJaxUl-76" target="ENUckQoq6mWFOVnJaxUl-103">
          <mxGeometry relative="1" as="geometry">
            <mxPoint x="880" y="780" as="sourcePoint" />
            <mxPoint x="908" y="713" as="targetPoint" />
          </mxGeometry>
        </mxCell>
        <mxCell id="ENUckQoq6mWFOVnJaxUl-111" value="&lt;h1&gt;N&lt;/h1&gt;" style="resizable=0;html=1;whiteSpace=wrap;align=right;verticalAlign=bottom;fontFamily=Helvetica;fontSize=11;fontColor=default;labelBackgroundColor=none;fillColor=none;gradientColor=none;" connectable="0" vertex="1" parent="ENUckQoq6mWFOVnJaxUl-110">
          <mxGeometry relative="1" as="geometry">
            <mxPoint x="16" y="54" as="offset" />
          </mxGeometry>
        </mxCell>
        <mxCell id="ENUckQoq6mWFOVnJaxUl-112" value="&lt;h1&gt;包含&lt;/h1&gt;" style="rhombus;whiteSpace=wrap;html=1;fillColor=#fff2cc;strokeColor=#d6b656;" vertex="1" parent="1">
          <mxGeometry x="610" y="715" width="110" height="70" as="geometry" />
        </mxCell>
        <mxCell id="ENUckQoq6mWFOVnJaxUl-113" value="" style="endArrow=none;html=1;rounded=0;fontFamily=Helvetica;fontSize=11;fontColor=default;labelBackgroundColor=none;entryX=0;entryY=0.5;entryDx=0;entryDy=0;exitX=1;exitY=0.5;exitDx=0;exitDy=0;" edge="1" parent="1" target="ENUckQoq6mWFOVnJaxUl-112" source="ENUckQoq6mWFOVnJaxUl-77">
          <mxGeometry relative="1" as="geometry">
            <mxPoint x="585" y="775" as="sourcePoint" />
            <mxPoint x="775" y="630" as="targetPoint" />
          </mxGeometry>
        </mxCell>
        <mxCell id="ENUckQoq6mWFOVnJaxUl-114" value="&lt;h1&gt;1&lt;/h1&gt;" style="resizable=0;html=1;whiteSpace=wrap;align=right;verticalAlign=bottom;fontFamily=Helvetica;fontSize=11;fontColor=default;labelBackgroundColor=none;fillColor=none;gradientColor=none;" connectable="0" vertex="1" parent="ENUckQoq6mWFOVnJaxUl-113">
          <mxGeometry relative="1" as="geometry">
            <mxPoint x="45" y="10" as="offset" />
          </mxGeometry>
        </mxCell>
        <mxCell id="ENUckQoq6mWFOVnJaxUl-115" value="" style="endArrow=none;html=1;rounded=0;fontFamily=Helvetica;fontSize=11;fontColor=default;labelBackgroundColor=none;entryX=1;entryY=0.5;entryDx=0;entryDy=0;exitX=0;exitY=0.5;exitDx=0;exitDy=0;" edge="1" parent="1" target="ENUckQoq6mWFOVnJaxUl-112" source="ENUckQoq6mWFOVnJaxUl-78">
          <mxGeometry relative="1" as="geometry">
            <mxPoint x="795" y="775" as="sourcePoint" />
            <mxPoint x="885" y="630" as="targetPoint" />
          </mxGeometry>
        </mxCell>
        <mxCell id="ENUckQoq6mWFOVnJaxUl-116" value="&lt;h1&gt;N&lt;/h1&gt;" style="resizable=0;html=1;whiteSpace=wrap;align=right;verticalAlign=bottom;fontFamily=Helvetica;fontSize=11;fontColor=default;labelBackgroundColor=none;fillColor=none;gradientColor=none;" connectable="0" vertex="1" parent="ENUckQoq6mWFOVnJaxUl-115">
          <mxGeometry x="1" relative="1" as="geometry">
            <mxPoint x="20" y="20" as="offset" />
          </mxGeometry>
        </mxCell>
        <mxCell id="ENUckQoq6mWFOVnJaxUl-130" value="&lt;h2&gt;&lt;span style=&quot;font-weight: normal;&quot;&gt;守備位置&lt;/span&gt;&lt;/h2&gt;" style="ellipse;shape=doubleEllipse;margin=3;whiteSpace=wrap;html=1;align=center;" vertex="1" parent="1">
          <mxGeometry x="535" y="600" width="100" height="40" as="geometry" />
        </mxCell>
        <mxCell id="ENUckQoq6mWFOVnJaxUl-131" value="&lt;h2&gt;&lt;span style=&quot;font-weight: normal;&quot;&gt;打擊順序&lt;/span&gt;&lt;/h2&gt;" style="ellipse;shape=doubleEllipse;margin=3;whiteSpace=wrap;html=1;align=center;" vertex="1" parent="1">
          <mxGeometry x="535" y="650" width="100" height="40" as="geometry" />
        </mxCell>
        <mxCell id="ENUckQoq6mWFOVnJaxUl-132" value="&lt;h2&gt;&lt;span style=&quot;font-weight: normal;&quot;&gt;守備位置&lt;/span&gt;&lt;/h2&gt;" style="ellipse;shape=doubleEllipse;margin=3;whiteSpace=wrap;html=1;align=center;" vertex="1" parent="1">
          <mxGeometry x="110" y="600" width="100" height="40" as="geometry" />
        </mxCell>
        <mxCell id="ENUckQoq6mWFOVnJaxUl-133" value="&lt;h2&gt;&lt;span style=&quot;font-weight: normal;&quot;&gt;打擊順序&lt;/span&gt;&lt;/h2&gt;" style="ellipse;shape=doubleEllipse;margin=3;whiteSpace=wrap;html=1;align=center;" vertex="1" parent="1">
          <mxGeometry x="110" y="650" width="100" height="40" as="geometry" />
        </mxCell>
        <mxCell id="ENUckQoq6mWFOVnJaxUl-134" value="" style="endArrow=none;html=1;rounded=0;exitX=1;exitY=0.5;exitDx=0;exitDy=0;entryX=0.095;entryY=0.379;entryDx=0;entryDy=0;entryPerimeter=0;" edge="1" parent="1" source="ENUckQoq6mWFOVnJaxUl-132" target="ENUckQoq6mWFOVnJaxUl-80">
          <mxGeometry width="50" height="50" relative="1" as="geometry">
            <mxPoint x="610" y="480" as="sourcePoint" />
            <mxPoint x="580" y="470" as="targetPoint" />
          </mxGeometry>
        </mxCell>
        <mxCell id="ENUckQoq6mWFOVnJaxUl-135" value="" style="endArrow=none;html=1;rounded=0;exitX=1;exitY=0.5;exitDx=0;exitDy=0;entryX=0.073;entryY=0.586;entryDx=0;entryDy=0;entryPerimeter=0;" edge="1" parent="1" source="ENUckQoq6mWFOVnJaxUl-133" target="ENUckQoq6mWFOVnJaxUl-80">
          <mxGeometry width="50" height="50" relative="1" as="geometry">
            <mxPoint x="220" y="630" as="sourcePoint" />
            <mxPoint x="280" y="647" as="targetPoint" />
          </mxGeometry>
        </mxCell>
        <mxCell id="ENUckQoq6mWFOVnJaxUl-136" value="" style="endArrow=none;html=1;rounded=0;exitX=1;exitY=0;exitDx=0;exitDy=0;entryX=0;entryY=0.5;entryDx=0;entryDy=0;" edge="1" parent="1" source="ENUckQoq6mWFOVnJaxUl-79" target="ENUckQoq6mWFOVnJaxUl-130">
          <mxGeometry width="50" height="50" relative="1" as="geometry">
            <mxPoint x="220" y="630" as="sourcePoint" />
            <mxPoint x="280" y="647" as="targetPoint" />
          </mxGeometry>
        </mxCell>
        <mxCell id="ENUckQoq6mWFOVnJaxUl-137" value="" style="endArrow=none;html=1;rounded=0;exitX=0;exitY=0.5;exitDx=0;exitDy=0;entryX=0.845;entryY=0.664;entryDx=0;entryDy=0;entryPerimeter=0;" edge="1" parent="1" source="ENUckQoq6mWFOVnJaxUl-131" target="ENUckQoq6mWFOVnJaxUl-79">
          <mxGeometry width="50" height="50" relative="1" as="geometry">
            <mxPoint x="230" y="640" as="sourcePoint" />
            <mxPoint x="290" y="657" as="targetPoint" />
          </mxGeometry>
        </mxCell>
      </root>
    </mxGraphModel>
  </diagram>
</mxfile>
